<svg xmlns="http://www.w3.org/2000/svg" id="Capa_2" viewBox="0 0 426.73 61.78"><defs><style>.cls-1{fill:#9d9d9c;}.cls-2{fill:#dadada;}.cls-3{fill:#f9b000;}.cls-3,.cls-4,.cls-5,.cls-6,.cls-7,.cls-8{fill-rule:evenodd;}.cls-4{fill:#12100b;}.cls-5{fill:#d2091e;}.cls-6{fill:#fff;}.cls-7{fill:#005f94;}.cls-8{fill:#008251;}</style></defs><g id="Primer_plano"><g><g><path class="cls-4" d="M299.71,19l1.92,4.55h-3.82l1.9-4.55Zm.6-2.38h-.33l-3.36,7.97c-.68,1.6-1.11,2.81-2.13,2.89v.32h3.27v-.32c-.56,0-1.12-.15-1.12-.69,0-.61,.68-1.93,.89-2.56h4.33l.59,1.41c.63,1.47,.65,1.79-.76,1.85v.32h4.21v-.32c-.92,.05-1.27-.94-1.57-1.62l-4.03-9.25Zm-7.83,.02h-.35c-.55,1.34-1.37-.02-3.64-.02-3.32,0-5.66,2.43-5.66,5.72,0,3.62,2.47,5.69,5.69,5.69,1.59,0,3.29-.83,4.3-2.07l-.28-.33c-1.14,1.12-2.25,1.65-3.87,1.65-2.71,0-3.92-2.5-3.92-4.81,0-2.98,1.17-5.18,3.9-5.18,1.88,0,3.09,1.24,3.57,3.06h.4l-.15-3.72Zm-13,1.54c0-.48,.25-1.01,1.62-1.01v-.31h-4.93v.31c1.37,0,1.62,.53,1.62,1.01v8.3c0,.48-.25,1.01-1.62,1.01v.32h4.93v-.32c-1.37,0-1.62-.53-1.62-1.01v-8.3Zm-6.34,0c0-.48,.25-1.01,1.6-1.01v-.31h-3.94v.31c1.36,0,1.6,.53,1.6,1.01v6.63l-6.37-7.96h-2.83v.31c.81,.02,.96,.17,1.47,.74l.13,.17v8.4c0,.48-.25,1.01-1.6,1.01v.32h3.93v-.32c-1.35,0-1.6-.53-1.6-1.01v-7.55l7.34,9.11h.25v-9.86Zm-11.88-1.54h-.35c-.55,1.34-1.37-.02-3.64-.02-3.33,0-5.65,2.43-5.65,5.72,0,3.62,2.46,5.69,5.69,5.69,1.59,0,3.29-.83,4.3-2.07l-.28-.33c-1.14,1.12-2.25,1.65-3.87,1.65-2.71,0-3.92-2.5-3.92-4.81,0-2.98,1.18-5.18,3.9-5.18,1.88,0,3.09,1.24,3.57,3.06h.4l-.15-3.72Zm-12.08,11.16l.74-2.79h-.46c-.88,2.1-2.14,2.12-3.46,2.12h-2.18c-.33,0-.43-.35-.43-.65v-4.07h2.33c1.11,0,2.05,.31,2.05,1.6h.35v-3.87h-.35c0,1.29-.94,1.59-2.05,1.59h-2.33v-3.56c0-.41,.31-.64,.73-.64h2.66c1.16,0,1.7,.79,1.88,1.69h.36v-2.37h-8.78v.31c1.21,0,1.45,.53,1.45,1.01v8.3c0,.48-.25,1.01-1.45,1.01v.32h8.93Zm-12.8-.32c-1.21,0-1.45-.53-1.45-1.01v-8.93h1.19c1.22,0,1.99,0,2.35,2.12h.4l-.1-2.81h-9.36l-.1,2.81h.4c.36-2.12,1.12-2.12,2.35-2.12h1.19v8.93c0,.48-.25,1.01-1.46,1.01v.32h4.6v-.32Zm-23.15-9.17c0-.8,.15-.85,.94-.85,3.06,0,5.17,1.67,5.17,4.91s-1.95,4.9-5.32,4.74c-.36-.02-.79-.2-.79-.81v-8Zm1.26,9.49c4.43,0,6.66-2.08,6.66-5.44,0-3.72-2.56-5.51-6.8-5.51h-4.27v.31c1.21,0,1.46,.53,1.46,1.01v8.3c0,.48-.25,1.01-1.46,1.01v.32h4.4Zm-12.11-8.8l1.92,4.55h-3.82l1.9-4.55Zm.59-2.38h-.33l-3.36,7.97c-.68,1.6-1.11,2.81-2.14,2.89v.32h3.27v-.32c-.56,0-1.12-.15-1.12-.69,0-.61,.68-1.93,.89-2.56h4.33l.59,1.41c.63,1.47,.65,1.79-.76,1.85v.32h4.22v-.32c-.93,.05-1.27-.94-1.57-1.62l-4.04-9.25Zm-14.79,1.69c0-.8,.15-.85,.94-.85,3.06,0,5.18,1.67,5.18,4.91s-1.95,4.9-5.33,4.74c-.36-.02-.79-.2-.79-.81v-8Zm1.26,9.49c4.43,0,6.66-2.08,6.66-5.44,0-3.72-2.56-5.51-6.8-5.51h-4.27v.31c1.21,0,1.46,.53,1.46,1.01v8.3c0,.48-.25,1.01-1.46,1.01v.32h4.4Zm-7.54-9.63c0-.48,.25-1.01,1.62-1.01v-.31h-4.93v.31c1.37,0,1.62,.53,1.62,1.01v8.3c0,.48-.25,1.01-1.62,1.01v.32h4.93v-.32c-1.37,0-1.62-.53-1.62-1.01v-8.3Zm-12.52,9.86h.36c.16-1.21,1.36,0,3.08,0,2.25,0,3.49-1.54,3.49-3.03,0-1.98-1.52-2.7-3.77-4.05-.71-.43-1.75-1.11-1.75-2.07,0-1.04,.74-1.59,1.74-1.59,1.54,0,2.63,1.31,3.01,2.84h.41l-.36-3.52h-.35c-.4,1.22-1.19,0-2.94,0-1.62,0-2.93,1.12-2.93,2.76,0,3.16,4.52,3.26,5.19,5.58,.38,1.29-.53,2.44-1.87,2.44-1.75,0-2.91-1.39-3.42-2.93h-.38l.5,3.56Zm-9.85-9.77c0-.78,.15-.78,1.22-.78,1.49,0,2.65,.64,2.65,2.28,0,1.79-1.47,2.28-3.87,2.37v-3.87Zm-1.69,8.22c0,.48-.25,1.01-1.41,1.01v.32h4.55v-.32c-1.2,0-1.45-.53-1.45-1.01v-3.73l.92-.04,3.94,5.09h2.66v-.32c-.75-.05-1.12-.38-1.57-.92l-3.27-4.04c1.55-.21,2.99-1.03,2.99-2.78,0-1.94-1.65-2.9-4.4-2.9h-4.37v.31c1.16,0,1.41,.53,1.41,1.01v8.3Zm-3.5,1.32l.74-2.79h-.46c-.88,2.1-2.13,2.12-3.46,2.12h-2.18c-.33,0-.43-.35-.43-.65v-4.07h2.33c1.11,0,2.05,.31,2.05,1.6h.35v-3.87h-.35c0,1.29-.94,1.59-2.05,1.59h-2.33v-3.56c0-.41,.32-.64,.73-.64h2.66c1.16,0,1.7,.79,1.89,1.69h.36v-2.37h-8.78v.31c1.21,0,1.45,.53,1.45,1.01v8.3c0,.48-.25,1.01-1.45,1.01v.32h8.93Zm-15.82,.23h.22c.91-2.38,2.61-6.75,3.84-9.67,.27-.66,.6-1.18,1.37-1.19v-.31h-3.39v.31c.48,0,1.21,.08,1.21,.71,0,.38-.25,1.03-.4,1.37l-2.35,5.89-2.41-5.41c-.15-.33-.76-1.61-.76-1.95,0-.4,.18-.61,1.24-.61v-.31h-4.4v.31c.96,0,1.39,.93,1.84,1.92l4,8.95Zm-8.98-9.86c0-.48,.25-1.01,1.62-1.01v-.31h-4.93v.31c1.37,0,1.62,.53,1.62,1.01v8.3c0,.48-.25,1.01-1.62,1.01v.32h4.93v-.32c-1.37,0-1.62-.53-1.62-1.01v-8.3Zm-6.34,0c0-.48,.25-1.01,1.6-1.01v-.31h-3.94v.31c1.36,0,1.61,.53,1.61,1.01v6.63l-6.37-7.96h-2.83v.31c.81,.02,.96,.17,1.47,.74l.13,.17v8.4c0,.48-.25,1.01-1.61,1.01v.32h3.94v-.32c-1.36,0-1.6-.53-1.6-1.01v-7.55l7.34,9.11h.25v-9.86Zm-21.26,5.44c0,3.03,1.22,4.42,4.23,4.42,.69,0,1.59-.18,2.12-.43,1.87-.89,2.03-2.34,2.03-4.21v-5.21c0-.48,.25-1.01,1.55-1.01v-.31h-3.84v.31c1.31,0,1.55,.53,1.55,1.01v5.21c0,1.57-.02,3.9-3.11,3.9-2.07,0-2.86-.97-2.86-3.56v-5.56c0-.48,.25-1.01,1.45-1.01v-.31h-4.6v.31c1.21,0,1.46,.53,1.46,1.01v5.44Zm197.78,12.51l1.92,4.55h-3.82l1.9-4.55Zm.6-2.38h-.33l-3.36,7.97c-.68,1.6-1.11,2.81-2.13,2.9v.31h3.27v-.31c-.56,0-1.12-.15-1.12-.7,0-.61,.68-1.93,.89-2.56h4.33l.59,1.4c.63,1.47,.65,1.79-.76,1.85v.31h4.21v-.31c-.92,.05-1.27-.94-1.57-1.62l-4.03-9.24Zm-8.43,1.56c0-.48,.25-1.01,1.62-1.01v-.32h-4.93v.32c1.37,0,1.62,.53,1.62,1.01v8.3c0,.48-.25,1.01-1.62,1.01v.31h4.93v-.31c-1.37,0-1.62-.53-1.62-1.01v-8.3Zm-11.81,.08c0-.78,.15-.78,1.22-.78,1.49,0,2.65,.65,2.65,2.28,0,1.79-1.47,2.28-3.87,2.37v-3.87Zm-1.69,8.22c0,.48-.25,1.01-1.4,1.01v.31h4.54v-.31c-1.21,0-1.45-.53-1.45-1.01v-3.74l.92-.03,3.94,5.09h2.66v-.31c-.74-.05-1.12-.38-1.57-.93l-3.27-4.04c1.55-.21,2.99-1.02,2.99-2.78,0-1.93-1.65-2.9-4.4-2.9h-4.36v.32c1.16,0,1.4,.53,1.4,1.01v8.3Zm-8.54-7.48l1.92,4.55h-3.82l1.9-4.55Zm.6-2.38h-.33l-3.36,7.97c-.68,1.6-1.11,2.81-2.13,2.9v.31h3.27v-.31c-.56,0-1.12-.15-1.12-.7,0-.61,.68-1.93,.89-2.56h4.33l.59,1.4c.63,1.47,.65,1.79-.76,1.85v.31h4.22v-.31c-.93,.05-1.27-.94-1.57-1.62l-4.03-9.24Zm-8.31,1.56c0-.48,.25-1.01,1.46-1.01v-.32h-3.29l-3.65,8.35-3.82-8.35h-3.27v.32c1.32,0,1.57,.53,1.57,1.01v8.3c0,.48-.25,1.01-1.6,1.01v.31h3.94v-.31c-1.36,0-1.61-.53-1.61-1.01v-7.71l4.15,9.03h.23l4.23-9.41v8.09c0,.48-.25,1.01-1.46,1.01v.31h4.6v-.31c-1.21,0-1.45-.53-1.45-1.01l-.02-8.3Zm-24.1,.82l1.92,4.55h-3.82l1.9-4.55Zm.59-2.38h-.33l-3.36,7.97c-.68,1.6-1.11,2.81-2.13,2.9v.31h3.27v-.31c-.56,0-1.12-.15-1.12-.7,0-.61,.68-1.93,.89-2.56h4.33l.59,1.4c.63,1.47,.65,1.79-.76,1.85v.31h4.21v-.31c-.92,.05-1.27-.94-1.57-1.62l-4.04-9.24Zm-7.76,10.87c-1.21,0-1.46-.53-1.46-1.01v-8.93h1.19c1.22,0,1.98,0,2.35,2.12h.4l-.1-2.81h-9.36l-.1,2.81h.4c.36-2.12,1.13-2.12,2.35-2.12h1.19v8.93c0,.48-.25,1.01-1.45,1.01v.31h4.6v-.31Zm-9.63-9.31c0-.48,.25-1.01,1.61-1.01v-.32h-3.94v.32c1.36,0,1.6,.53,1.6,1.01v6.63l-6.37-7.96h-2.83v.32c.81,.01,.96,.16,1.47,.74l.13,.17v8.4c0,.48-.25,1.01-1.6,1.01v.31h3.94v-.31c-1.36,0-1.6-.53-1.6-1.01v-7.56l7.34,9.11h.25v-9.85Zm-17.05,.82l1.92,4.55h-3.82l1.9-4.55Zm.59-2.38h-.33l-3.36,7.97c-.68,1.6-1.11,2.81-2.14,2.9v.31h3.27v-.31c-.56,0-1.13-.15-1.13-.7,0-.61,.68-1.93,.89-2.56h4.33l.59,1.4c.63,1.47,.65,1.79-.76,1.85v.31h4.22v-.31c-.93,.05-1.27-.94-1.57-1.62l-4.03-9.24Zm-14.54,11.41h.36c.16-1.21,1.36,0,3.07,0,2.25,0,3.49-1.54,3.49-3.03,0-1.99-1.52-2.69-3.77-4.05-.71-.43-1.75-1.11-1.75-2.07,0-1.04,.74-1.59,1.74-1.59,1.54,0,2.63,1.31,3.01,2.85h.41l-.36-3.52h-.35c-.4,1.22-1.19,0-2.94,0-1.62,0-2.93,1.13-2.93,2.76,0,3.16,4.51,3.26,5.19,5.57,.38,1.29-.53,2.45-1.87,2.45-1.75,0-2.91-1.39-3.42-2.93h-.38l.5,3.56Zm-11.87-10.82c2.57-.04,3.54,2.51,3.54,5.11,.08,1.77-.6,4.88-3.54,5.11-1.95,.15-3.54-1.71-3.54-5.11,0-3.16,1.08-4.94,3.54-5.11Zm0-.6c-3.22-.07-5.42,2.42-5.42,5.71,0,3.51,2.51,5.71,5.42,5.71,3.31,0,5.41-2.51,5.41-5.71,0-3.52-2.55-5.84-5.41-5.71Zm-7.28,.02h-.35c-.55,1.34-1.37-.02-3.64-.02-3.32,0-5.66,2.43-5.66,5.72,0,3.62,2.46,5.69,5.69,5.69,1.59,0,3.29-.83,4.3-2.07l-.28-.33c-1.14,1.12-2.25,1.66-3.87,1.66-2.71,0-3.92-2.5-3.92-4.82,0-2.98,1.17-5.18,3.9-5.18,1.89,0,3.09,1.24,3.57,3.06h.4l-.15-3.72Zm-12.55,1.54c0-.48,.25-1.01,1.62-1.01v-.32h-4.93v.32c1.37,0,1.62,.53,1.62,1.01v8.3c0,.48-.25,1.01-1.62,1.01v.31h4.93v-.31c-1.37,0-1.62-.53-1.62-1.01v-8.3Zm-11.81,.08c0-.78,.15-.78,1.22-.78,1.49,0,2.65,.65,2.65,2.28,0,1.79-1.47,2.28-3.87,2.37v-3.87Zm-1.69,8.22c0,.48-.25,1.01-1.41,1.01v.31h4.55v-.31c-1.21,0-1.45-.53-1.45-1.01v-3.74l.93-.03,3.94,5.09h2.66v-.31c-.74-.05-1.12-.38-1.57-.93l-3.27-4.04c1.55-.21,2.99-1.02,2.99-2.78,0-1.93-1.65-2.9-4.4-2.9h-4.37v.32c1.16,0,1.41,.53,1.41,1.01v8.3Zm-3.05,1.32l.74-2.8h-.46c-.88,2.1-2.13,2.12-3.46,2.12h-2.18c-.33,0-.43-.35-.43-.64v-4.07h2.33c1.11,0,2.05,.31,2.05,1.6h.35v-3.87h-.35c0,1.29-.94,1.59-2.05,1.59h-2.33v-3.56c0-.41,.31-.65,.73-.65h2.66c1.16,0,1.7,.79,1.89,1.68h.36v-2.37h-8.78v.32c1.21,0,1.46,.53,1.46,1.01v8.3c0,.48-.25,1.01-1.46,1.01v.31h8.93Zm-18.06-9.49c0-.79,.15-.84,.94-.84,3.06,0,5.18,1.67,5.18,4.91s-1.95,4.9-5.33,4.74c-.36-.02-.79-.2-.79-.81v-8Zm1.26,9.49c4.43,0,6.66-2.08,6.66-5.44,0-3.72-2.56-5.51-6.8-5.51h-4.27v.32c1.21,0,1.46,.53,1.46,1.01v8.3c0,.48-.25,1.01-1.46,1.01v.31h4.4Zm-6.17,0l.74-2.8h-.46c-.88,2.1-2.13,2.12-3.46,2.12h-2.18c-.33,0-.43-.35-.43-.64v-4.07h2.33c1.11,0,2.05,.31,2.05,1.6h.35v-3.87h-.35c0,1.29-.94,1.59-2.05,1.59h-2.33v-3.56c0-.41,.31-.65,.73-.65h2.66c1.16,0,1.7,.79,1.88,1.68h.36v-2.37h-8.78v.32c1.21,0,1.46,.53,1.46,1.01v8.3c0,.48-.25,1.01-1.46,1.01v.31h8.93Zm-13.96,0v-.31c-1.24,0-1.49-.53-1.49-1.01v-4.07h2.18c1.11,0,2.05,.31,2.05,1.6h.35v-3.87h-.35c0,1.29-.94,1.59-2.05,1.59h-2.18v-3.56c0-.4,.13-.65,.71-.65h2.18c1.16,0,2.15-.13,2.36,1.68h.4v-2.37h-8.8v.32c1.21,0,1.45,.53,1.45,1.01v8.3c0,.48-.25,1.01-1.45,1.01v.31h4.63Z"></path><g><g><path class="cls-3" d="M80.16,12.46H45.94s.01,26.26,.01,26.26c0,0-.02,.1-.01,.2,.02,1.04,.96,2.28,1.57,2.98,1.17,1.31,2.83,2,4.55,2,.3,0,.5-.03,.5-.03h5.61s.52,0,1.14,.07c1.97,.2,2.64,.87,3.74,2.42,1.21-1.9,2.22-2.45,4.47-2.48h7c2.56-.38,4.59-1.86,5.43-4.36,.16-.48,.2-.81,.21-.89V12.46Z"></path><path class="cls-7" d="M2.4,.64c1.5,.88,1.92,1.96,2.16,3.62V38.69s-.01,.08,0,.2c.12,1.06,.96,2.21,1.64,2.94,1.19,1.28,3.26,2.08,5,2.02h5.74s.45,0,1.03,.06c1.91,.18,2.66,.84,3.71,2.39,1.31-1.88,2.34-2.43,4.62-2.44h6.85c2.44-.37,4.54-2.09,5.44-4.39,.08-.19,.18-.51,.19-.73V4.58s.04-.47,.15-1.04c.3-1.54,.79-2.22,2.08-2.9h-9.45s0,16.62,0,16.62v16.37s-.03,.33-.12,.73c-.3,1.38-1.01,1.88-2.29,2.33H14.58s-.38-.11-.78-.29c-1.33-.59-1.73-1.37-1.95-2.76V.64H2.4Z"></path><path class="cls-7" d="M43.74,.65c1.53,.91,1.96,1.92,2.21,3.62v7.56h34.22V4.58s.05-.47,.19-1.04c.34-1.43,.95-2.24,1.97-2.89H43.74Z"></path><g><path class="cls-4" d="M69.55,38.6c-.08,.24-.15,.48-.15,.69l.13-.05c-.02-.09,0-.35,.02-.63Zm1.33,1.38l.06,.21s-.08,.12-.15,.2c-.26,.28-.53,.33-.89,.3-.27-.05-.54-.28-.76-.43l.09-.03c-.08-.04-.17-.1-.25-.15-.34,.22-1.06-.03-1.34-.14l.15-.19c-.24-.05-.48-.14-.62-.2,0,0,.18-.28,.24-.36,.15-.2,.31-.36,.55-.45l.08-.17c.19-.61,.3-1.31-.11-1.85-.17-.22-.25-.38-.31-.59-.85,.14-1.08,.28-1.95,.71-.23,.12-.5,.16-.76,.08l-.07-.03c-.08-.04-.15-.11-.15-.21-.67,0-1.33,.02-1.99,.08,.03,.2,.08,.55,.12,.81,.05,.37,.04,.75,.17,1.1l.08,.2c.1,.24,.15,.37,.04,.62l.02,.11c.07,.39-.43,.49-.72,.49-.24,0-.49-.16-.68-.29l.06-.13c-.07-.02-.13-.04-.19-.06-.11-.05-.31-.18-.31-.18,0,0,.04-.19,.07-.27,.05-.15,.13-.31,.23-.44v-.79s-.09-.12-.09-.12l-.08-.11c-.15,.39-.28,.85-.21,1.15l.04,.14c.08,.28-.01,.45-.22,.63l.1,.44s-.13,.13-.22,.2c-.42,.33-.8,.27-1.29,.13,0,0-.01-.14,0-.17,0-.03,.02-.06,.03-.1-.17-.02-.34-.07-.53-.13,0,0,.05-.26,.1-.37,.1-.25,.24-.44,.42-.64l.07-.07c.02-.16,.03-.32,.08-.47,.21-.61-.22-.55-.15-1.33-.36-.26-1-.53-1.19-.92-.07-.15-.15-.2-.24-.33l-.05-.07c-.21-.15-.24-.1-.29-.39l-.02-.15c-.03-.19-.15-.41-.31-.61-.7-.54-1.06,.06-1.67-.22-.03-.02-.06-.03-.09-.05-.19-.14-.37-.19-.51-.13l-.09,.04c-.41,.17-.96,.21-1.2-.26-.19-.08-.35-.19-.45-.4-.13-.26-.11-.56,.1-.77l.08-.07c.25-.25,.14-.72,.61-1.15,.35-.32,.17-.53,.5-.86-.36-.18-.65-.44-.92-.76l.27-.32s.17,.1,.39,.19c.18,.08,.52,.21,.73,.14l.12-.05c.2-.07,.41-.09,.6,0l.08,.05,.1,.08c.2,.11,.36-.2,.85,.02,.04,.02,.08,.04,.13,.04,.17,0,.8-.12,1.31-.13,.6,0,.93,.14,1.53,.17,.55,.02,.86-.03,1.41-.02,1.06,.01,1.66,.18,2.72,.17,1.54,0,2.4-.43,3.94-.4,1.06,.02,2.73-.12,3.23,.95,.31,.22,.47,.48,.49,1.07,.02,.54-.07,1.4-.49,1.83-.55,.74-1.08,1.71-.59,2.59,.36,.64,.26,1.03,.19,1.76,0,0-.01,.68,.06,1.11,0,.04,.02,.08,.03,.13l.05,.14c.08,.23,.06,.36-.19,.46Z"></path><path class="cls-5" d="M70.06,39.44c-.15,.07-.41,.2-.5,.25-.08,.05-.14,.1-.19,.15,.05,.02,.12,.05,.17,.06,.25,.02,.41,0,.59-.21l-.07-.26Zm-1.73-.36s-.16,.03-.21,.05c-.11,.04-.2,.11-.27,.2,.5,.12,.59,.16,.48-.25Zm1.71-5.62c.41-.32,.8-.74,.92-1.04,.02-.05,.03-.09,.03-.09,.16-.63,.09-1.41-.41-1.65-.77-.38-1.65-.3-2.49-.32-1.54-.03-2.39,.39-3.93,.4-1.06,0-1.66-.16-2.73-.17-.56,0-.87,.05-1.42,.02-.59-.03-.92-.17-1.51-.17-.51,0-1.14,.12-1.31,.12-.26,0-.33-.19-.59-.09-.19,.08-.36,.1-.55,0l-.08-.05-.11-.08c-.11-.07-.21-.04-.29,0l-.14,.05c-.05,.02-.11,.03-.18,.04l.44,.2c-.5,.33-.58,.28-.75,.8-.13,.41-.48,.48-.6,.91-.07,.25-.14,.51-.33,.7l-.08,.08c-.21,.2,.15,.49,.39,.44,.1-.02,.23-.05,.33-.09l.09-.04c.27-.11,.58-.04,.81,.12l.09,.06c.5,.23,.9-.47,1.93,.39,.32,.27,.63,.7,.71,1.12l.02,.16c.11,.1,.18,.16,.23,.22,.36,.31,.19,.49,.62,.73,.32,.19,.97,.53,.97,.53-.16,1.07,.17,.66,.19,1.29,0,.14-.03,.25-.06,.34l-.04,.12c-.06,.17-.06,.35-.08,.53-.18,.18-.36,.36-.47,.59,.31,.05,.42,.03,.66-.16l-.13-.44c.15-.1,.37-.2,.31-.41l-.04-.15c-.17-.71,.44-1.88,.74-2.49,.21,.67,.37,1.18,.82,1.75l.07,.99-.2-.1,.17,.24-.16,.07c-.02,.07-.06,.16-.1,.25,.15,.07,.46,.12,.59,0l-.06-.2s.06-.1,.07-.12c.01-.03,.02-.06,.03-.09-.02-.11-.05-.16-.07-.22l-.09-.21c-.15-.38-.14-.78-.19-1.18-.05-.38-.18-1.19-.18-1.19,0,0,1.02-.09,1.53-.11,.49-.02,1.91,.01,1.91,.01l-.34,.23c.35-.09,.88-.47,1.35-.62,.52-.17,1.08-.23,1.62-.29,.03,.47,.03,.84,.33,1.22,.59,.77,.36,1.74,.06,2.58,.05,0,.21-.02,.26-.03,.09-.7,.31-1.27,.52-1.88,.03-.07-.11-1.09-.12-1.15l.4-.11s.13,.29,.26,.68c.38,1.08,.38,1.51,.29,2.58l.11,.12,.18-.03,.07-.02-.05-.14c-.14-.42-.12-.92-.11-1.37,.07-.65,.17-1.01-.14-1.56-.43-.76-.24-1.58,.15-2.29-.31,.23-.63,.4-.87,.45-.88,.17-1.89-.33-2.57-.85h-.09s-.05,0-.07,.01l-.1,.04c-.44,.15-.69-.18-.73-.58-.02-.2,.02-.2-.11-.29l-.44-.3s.62-.06,.73-.06c.45,0,.7,.17,1.05,.42,.04,.03,1.49,1.08,2.34,.77,.64-.23,.94-.73,1.25-1.26l.06-.1s.04,.05,.01,.1l.36-.12s.02,.1-.03,.2l-.06,.11c-.26,.46-.53,.82-.82,1.07Zm-2.89-.18c.57,.39,1.37,.78,2.07,.64,.14-.03,.32-.12,.52-.24-.55,.32-1.2,.29-2.09-.13-.18-.09-.35-.18-.49-.27Zm-.71-.19c.12-.04,.24-.03,.36-.03l-.09-.06s-.15-.11-.26-.17c-.1-.06-.19-.12-.31-.15l-.08-.02,.02,.22c.01,.14,.05,.32,.23,.26l.11-.04Z"></path></g><g><polygon class="cls-4" points="63.57 2.49 64.25 3.48 66.25 3.11 66.14 3.7 66.61 3.61 66.26 5.44 67.59 6.35 67.44 6.45 67.92 6.78 66.23 7.94 66.61 9.95 64.6 9.57 63.44 11.26 63.11 10.78 63.01 10.92 62.11 9.61 60.26 9.95 60.37 9.47 59.78 9.58 60.15 7.59 59.15 6.91 58.44 6.35 60.16 5.16 59.78 3.11 61.83 3.49 63.01 1.77 63.53 2.52 63.57 2.49"></polygon><path class="cls-6" d="M62.17,3.75l.75,1.8s.07,0,.11,0,.07,0,.11,0l.72-1.8-.85-1.23-.84,1.23Zm.36,1.96l-.75-1.8-1.47-.27,.27,1.47,1.8,.75c.04-.05,.09-.1,.15-.14Zm-.33,.53l-1.78-.74-1.23,.85,1.23,.85,1.77-.73v-.08s0-.1,0-.15Zm.13,.62l-1.76,.72-.27,1.47,1.47-.27,.73-1.73c-.07-.05-.13-.12-.18-.19Zm.56,.36l-.73,1.72,.84,1.23,.85-1.23-.69-1.72s-.09,.01-.14,.01-.09,0-.13-.01Zm.66-.17l.69,1.73,1.47,.27-.27-1.47-1.71-.73c-.05,.07-.11,.14-.18,.19Zm.32-.59l1.74,.74,1.23-.84-1.23-.85-1.75,.73c0,.05,.01,.11,.01,.16v.07Zm-.2-.61l1.77-.73,.27-1.47-1.47,.27-.72,1.8c.05,.04,.1,.08,.14,.14Zm-.64,.02c-.29,0-.52,.23-.52,.52s.23,.52,.52,.52,.52-.24,.52-.52-.24-.52-.52-.52Z"></path></g><path class="cls-4" d="M81.48,39.52s-.1,1.6-1.57,3.41c-1.01,1.24-2.94,2.1-4.51,2.3h-7.03s-1.6,.04-2.44,.5c-.8,.44-1.55,1.6-2,2.43-.18-.28-.39-.61-.63-.93l-.19,.35c-.5-.8-.9-1.41-1.32-1.88-.84-.47-2.74-.46-2.76-.46h-5.58c-1.84,.21-3.87-.58-5.19-1.88-.45-.3-.85-.65-1.2-1.04-1.84-2.06-1.77-3.38-1.72-3.65V11.82s-.01-7.51-.01-7.51c-.24-1.49-.65-2.32-1.58-2.96l-.29,.04c-.17,.05-2.01,.65-2.67,1.57-.59,.82-.71,2.54-.71,2.55V39.66s-.01,1.26-1.76,3.32c-1,1.17-2.78,2.07-4.31,2.26h-6.88s-1.6,.02-2.45,.45c-.85,.43-1.67,1.59-2.17,2.42-.17-.29-.38-.62-.61-.94l-.21,.34c-.42-.72-.78-1.3-1.16-1.74l-.13-.07c-.9-.47-2.6-.44-2.61-.44h-5.74s-.81,.02-1.88-.24c-1.06-.25-2.4-.79-3.47-1.93-.35-.25-.67-.52-.94-.82-1.81-1.94-1.83-3.35-1.82-3.58V4.3C3.59,2.18,2.95,1.39,.91,.61l.12-.61H42.57s41,.02,41,.02l.03,.13,1.09,1.13c-.8,.37-1.93,1-2.43,1.69-.57,.8-.78,2.4-.8,2.53V39.52Zm-1.31-27.06H45.94s.01,26.26,.01,26.26c0,0-.02,.1-.01,.2,.02,1.04,.96,2.28,1.57,2.98,1.17,1.31,2.83,2,4.55,2,.3,0,.5-.03,.5-.03h5.61s.52,0,1.14,.07c1.97,.2,2.64,.87,3.74,2.42,1.21-1.9,2.22-2.45,4.47-2.48h7c2.56-.38,4.59-1.86,5.43-4.36,.16-.48,.2-.81,.21-.89V12.46ZM43.74,.65c1.53,.91,1.96,1.92,2.21,3.62v7.56h34.22V4.58s.05-.47,.19-1.04c.34-1.43,.95-2.24,1.97-2.89H43.74Zm-41.34-.02c1.5,.88,1.92,1.96,2.16,3.62V38.69s-.01,.08,0,.2c.12,1.06,.96,2.21,1.64,2.94,1.19,1.28,3.26,2.08,5,2.02h5.74s.45,0,1.03,.06c1.91,.18,2.66,.84,3.71,2.39,1.31-1.88,2.34-2.43,4.62-2.44h6.85c2.44-.37,4.54-2.09,5.44-4.39,.08-.19,.18-.51,.19-.73V4.58s.04-.47,.15-1.04c.3-1.54,.79-2.22,2.08-2.9h-9.45s0,16.62,0,16.62v16.37s-.03,.33-.12,.73c-.3,1.38-1.01,1.88-2.29,2.33H14.58s-.38-.11-.78-.29c-1.33-.59-1.73-1.37-1.95-2.76V.64H2.4Z"></path><path class="cls-3" d="M12.48,33.59c.28,1.53,.71,1.99,2.19,2.46h6.96V17.89H12.48v15.69Z"></path><g><path class="cls-4" d="M20.53,25.17c.12,.23,.08,.46-.09,.65l.08,.87-.53,.08h-.45s-.51,0-.51,0l-.38-.02-.53-.07,.06-.29-.53-.07,.15-.88c-.13-.14-.17-.3-.13-.49l.02-.09c-.15-.23-.26-.44-.26-.68,0-.15,.05-.25,.09-.32-.13-.91-.35-2.71-.35-2.71l.51,.11,.37-.26,.28,.14,.3-.17,.32,.15,.32-.17,.33,.19,.31-.13,.37,.25,.53-.12-.1,.57,.45-.1-.44,2.57,.03,.08c.1,.28,.01,.52-.14,.76l-.08,.12Z"></path><path class="cls-8" d="M18.03,24.54h1.8l.06-.09c.16-.24,.17-.35,.04-.59l.37-2.17-.11,.02-.33-.23-.29,.12-.31-.18-.31,.16-.31-.15-.3,.17-.26-.13-.31,.22-.12-.03c.06,.48,.19,1.46,.3,2.1,.04,.22-.1,.27-.1,.4s.09,.26,.19,.35Zm1.63,1.05h-1.46l-.07,.39,.13,.02,.36,.02h.5s.42,0,.42,0l.16-.02-.05-.39Zm-1.57-.62c-.02,.09-.04,.14,.02,.21h1.64c.06-.07,.07-.12,.05-.21h-1.71s0,0,0,0Z"></path></g><g><path class="cls-4" d="M18.42,32.2c.12,.23,.08,.46-.09,.65l.08,.87-.53,.08h-.45s-.51,0-.51,0l-.38-.02-.53-.07,.06-.29-.53-.07,.15-.88c-.13-.14-.17-.3-.13-.49l.02-.09c-.14-.23-.26-.44-.26-.68,0-.16,.05-.25,.09-.32-.13-.91-.35-2.71-.35-2.71l.51,.11,.36-.26,.28,.14,.3-.17,.32,.15,.32-.17,.33,.19,.31-.13,.37,.25,.53-.12-.1,.57,.45-.1-.44,2.57,.03,.08c.1,.28,.02,.52-.14,.76l-.08,.12Z"></path><path class="cls-8" d="M15.92,31.58h1.8l.06-.09c.16-.24,.17-.35,.04-.58l.37-2.17-.11,.03-.33-.23-.29,.12-.3-.18-.31,.16-.31-.15-.3,.17-.26-.13-.31,.22-.12-.03c.06,.48,.19,1.46,.29,2.1,.04,.21-.1,.27-.1,.4s.09,.26,.19,.35Zm1.63,1.05h-1.46l-.07,.39,.13,.02,.36,.02h.5s.42,0,.42,0l.16-.02-.05-.39Zm-1.57-.62c-.02,.09-.04,.14,.02,.2h1.64c.06-.07,.08-.12,.05-.21h-1.71s0,0,0,0Z"></path></g><g><path class="cls-4" d="M69.55,25.59c-.08,.24-.15,.48-.15,.69l.13-.05c-.02-.09,0-.35,.02-.63Zm1.33,1.38l.06,.21s-.08,.13-.15,.2c-.26,.28-.53,.33-.89,.3-.27-.05-.54-.28-.76-.43l.09-.03c-.08-.04-.17-.1-.25-.15-.34,.22-1.06-.03-1.34-.14l.15-.19c-.24-.06-.48-.14-.62-.2,0,0,.18-.28,.24-.36,.15-.2,.31-.36,.55-.45l.08-.17c.19-.61,.3-1.31-.11-1.84-.17-.22-.25-.38-.31-.59-.85,.14-1.08,.28-1.95,.71-.23,.12-.5,.16-.76,.08l-.07-.03c-.08-.04-.15-.11-.15-.21-.67,0-1.33,.02-1.99,.08,.03,.2,.08,.55,.12,.8,.05,.37,.04,.75,.17,1.1l.08,.2c.1,.24,.15,.37,.04,.62l.02,.11c.07,.4-.43,.49-.72,.49-.24,0-.49-.16-.68-.29l.06-.13c-.07-.02-.13-.04-.19-.06-.11-.05-.31-.19-.31-.19,0,0,.04-.19,.07-.27,.05-.15,.13-.31,.23-.44v-.79s-.09-.12-.09-.12l-.08-.11c-.15,.39-.28,.85-.21,1.15l.04,.14c.08,.28-.01,.45-.22,.63l.1,.43s-.13,.13-.22,.2c-.42,.33-.8,.27-1.29,.13,0,0-.01-.14,0-.17,0-.03,.02-.06,.03-.1-.17-.02-.34-.07-.53-.13,0,0,.05-.27,.1-.37,.1-.25,.24-.44,.42-.64l.07-.08c.02-.16,.03-.32,.08-.47,.21-.6-.22-.55-.15-1.32-.36-.26-1-.53-1.19-.92-.07-.15-.15-.2-.24-.33l-.05-.07c-.21-.15-.24-.1-.29-.39l-.02-.15c-.03-.19-.15-.41-.31-.61-.7-.54-1.06,.06-1.67-.22-.03-.02-.06-.03-.09-.05-.19-.14-.37-.19-.51-.13l-.09,.04c-.41,.17-.96,.21-1.2-.26-.19-.08-.35-.19-.45-.4-.13-.26-.11-.57,.1-.77l.08-.07c.25-.25,.14-.72,.61-1.15,.35-.32,.17-.53,.5-.86-.36-.18-.65-.44-.92-.76l.27-.32s.17,.1,.39,.19c.18,.08,.52,.21,.73,.14l.12-.05c.2-.08,.41-.09,.6,0l.08,.05,.1,.08c.2,.11,.36-.2,.85,.02,.04,.02,.08,.04,.13,.04,.17,0,.8-.13,1.31-.13,.6,0,.93,.14,1.53,.17,.55,.03,.86-.03,1.41-.02,1.06,.01,1.66,.18,2.72,.17,1.54,0,2.4-.43,3.94-.4,1.06,.02,2.73-.12,3.23,.95,.31,.22,.47,.48,.49,1.07,.02,.55-.07,1.4-.49,1.83-.55,.74-1.08,1.71-.59,2.59,.36,.64,.26,1.03,.19,1.76,0,0-.01,.68,.06,1.11,0,.04,.02,.08,.03,.12l.05,.14c.08,.23,.06,.37-.19,.46Z"></path><path class="cls-5" d="M68.33,26.07s-.16,.03-.21,.05c-.11,.04-.2,.11-.27,.2,.5,.12,.59,.16,.48-.25Zm1.73,.36c-.15,.07-.41,.2-.5,.25-.08,.05-.14,.1-.19,.15,.05,.02,.12,.05,.17,.06,.25,.02,.41,0,.59-.21l-.07-.26Zm-.02-5.98c.41-.32,.8-.74,.92-1.04,.02-.05,.03-.09,.03-.09,.16-.63,.09-1.41-.41-1.65-.77-.38-1.65-.3-2.49-.31-1.54-.03-2.39,.39-3.93,.4-1.06,0-1.66-.16-2.73-.17-.56,0-.87,.05-1.42,.02-.59-.03-.92-.17-1.51-.17-.51,0-1.14,.13-1.31,.13-.26,0-.33-.19-.59-.09-.19,.08-.36,.1-.55,0l-.08-.05-.11-.08c-.11-.07-.21-.04-.29,0l-.14,.05c-.05,.02-.11,.04-.18,.04l.44,.2c-.5,.33-.58,.28-.75,.8-.13,.41-.48,.48-.6,.91-.07,.25-.14,.51-.33,.7l-.08,.08c-.21,.2,.15,.49,.39,.44,.1-.02,.23-.05,.33-.09l.09-.04c.27-.11,.58-.04,.81,.12l.09,.06c.5,.23,.9-.47,1.93,.39,.32,.27,.63,.7,.71,1.12l.02,.16c.11,.1,.18,.16,.23,.22,.36,.31,.19,.49,.62,.73,.32,.19,.97,.53,.97,.53-.16,1.07,.17,.66,.19,1.29,0,.14-.03,.25-.06,.34l-.04,.12c-.06,.17-.06,.35-.08,.53-.18,.18-.36,.36-.47,.59,.31,.05,.42,.03,.66-.17l-.13-.44c.15-.1,.37-.2,.31-.41l-.04-.15c-.17-.7,.44-1.89,.74-2.49,.21,.67,.37,1.18,.82,1.75l.07,.99-.2-.1,.17,.24-.16,.07c-.02,.07-.06,.16-.1,.25,.15,.08,.46,.12,.59,0l-.06-.2s.06-.1,.07-.12c.01-.03,.02-.06,.03-.09-.02-.11-.05-.16-.07-.22l-.09-.21c-.15-.38-.14-.78-.19-1.18-.05-.38-.18-1.19-.18-1.19,0,0,1.02-.09,1.53-.11,.49-.02,1.91,.01,1.91,.01l-.34,.23c.35-.09,.88-.47,1.35-.62,.52-.17,1.08-.23,1.62-.29,.03,.47,.03,.84,.33,1.23,.59,.77,.36,1.74,.06,2.58,.05,0,.21-.02,.26-.03,.09-.7,.31-1.27,.52-1.88,.03-.07-.11-1.09-.12-1.15l.4-.12s.13,.29,.26,.68c.38,1.08,.38,1.51,.29,2.58l.11,.12,.18-.03,.07-.02-.05-.15c-.14-.42-.12-.92-.11-1.37,.07-.65,.17-1.01-.14-1.56-.43-.76-.24-1.58,.15-2.29-.31,.23-.63,.4-.87,.45-.88,.17-1.89-.33-2.57-.85h-.09s-.05,0-.07,.02l-.1,.04c-.44,.15-.69-.18-.73-.58-.02-.2,.02-.2-.11-.29l-.44-.3s.62-.06,.73-.06c.45,0,.7,.17,1.05,.42,.04,.03,1.49,1.08,2.34,.77,.64-.23,.94-.73,1.25-1.26l.06-.1s.04,.05,.01,.1l.36-.12s.02,.1-.03,.2l-.06,.11c-.26,.46-.53,.82-.82,1.07Zm-2.89-.18c.57,.39,1.37,.77,2.07,.64,.14-.03,.32-.12,.52-.24-.55,.31-1.2,.29-2.09-.13-.18-.09-.35-.18-.49-.27Zm-.71-.19c.12-.04,.24-.03,.36-.03l-.09-.06s-.15-.11-.26-.17c-.1-.06-.19-.12-.31-.15l-.08-.02,.02,.22c.01,.14,.05,.32,.23,.26l.11-.04Z"></path></g><g><path class="cls-4" d="M29.21,38.32l.26,.02,.29,1.2,.24,.26s.03,.03,.08,.09c.06,.08,.11,.15,.15,.22l.15,.16s.03,.03,.07,.09c.46,.58,.31,.99-.21,1.42-.1,.87-.51,1.11-1.37,1.01-.23,.22-.56,.49-.89,.49s-.66-.27-.89-.49c-.53,.12-.99,.12-1.23-.37-.37-.1-.57-.42-.63-1l-.13-.08c-.59-.42-.41-1.08,.03-1.55l.57-.62,.32-1.31,.86-.04c.48-.39,.8-.41,1.32-.01l.91,.06,.12,.47Z"></path><path class="cls-6" d="M27.93,38.12c-.06-.05-.11-.08-.16-.11-.14-.09-.24-.11-.35-.06l-.39,.27c-.11,.1-.11,.25-.2,.32-.04,.04-.38-.07-.32-.29h-.16s-.27,1.11-.27,1.11l-.64,.71c-.28,.3-.47,.66-.07,.94l.6-.88,.35,.24-.67,.99c.07,.66,.25,.78,.89,.63l.24-1.5,.42,.07-.25,1.55c.13,.12,.4,.36,.61,.36s.47-.23,.6-.36l-.33-1.58,.41-.08,.32,1.54c.62,.05,.8-.05,.88-.67l-.72-.96,.34-.26,.64,.85c.31-.29,.3-.53-.02-.86l-.66-.72-.27-1.11h-.19s-.37,.2-.37,.2c-.05-.12-.08-.18-.18-.26l-.09-.06Z"></path></g><g><path class="cls-4" d="M16.3,25.17c.12,.23,.08,.46-.09,.65l.08,.87-.53,.08h-.45s-.51,0-.51,0l-.38-.02-.53-.07,.06-.29-.54-.07,.15-.88c-.13-.14-.17-.3-.13-.49l.02-.09c-.15-.23-.26-.44-.26-.68,0-.15,.05-.25,.09-.32-.13-.91-.35-2.71-.35-2.71l.51,.11,.37-.26,.28,.14,.3-.17,.32,.15,.33-.17,.32,.19,.31-.13,.37,.25,.53-.12-.1,.57,.45-.1-.44,2.57,.03,.08c.1,.28,.02,.52-.14,.76l-.08,.12Z"></path><path class="cls-8" d="M13.8,24.54h1.8l.06-.09c.16-.24,.17-.35,.04-.59l.37-2.17-.11,.02-.33-.23-.29,.12-.3-.18-.31,.16-.31-.15-.3,.17-.26-.13-.32,.22-.12-.03c.06,.48,.19,1.46,.3,2.1,.04,.22-.1,.27-.1,.4s.09,.26,.19,.35Zm1.63,1.05h-1.46l-.07,.39,.13,.02,.36,.02h.5s.42,0,.42,0l.16-.02-.05-.39Zm-1.57-.62c-.02,.09-.04,.14,.02,.21h1.64c.06-.07,.08-.12,.05-.21h-1.71s0,0,0,0Z"></path></g><g><path class="cls-4" d="M17.48,38.32l.26,.02,.29,1.2,.24,.26s.03,.03,.07,.09c.06,.08,.11,.15,.15,.22l.15,.16s.03,.03,.07,.09c.46,.58,.31,.99-.21,1.42-.1,.87-.51,1.11-1.37,1.01-.23,.22-.56,.49-.89,.49s-.66-.27-.89-.49c-.53,.12-.99,.12-1.23-.37-.37-.1-.57-.42-.63-1l-.13-.08c-.59-.42-.41-1.08,.03-1.55l.57-.62,.32-1.31,.86-.04c.48-.39,.8-.41,1.32-.01l.91,.06,.11,.47Z"></path><path class="cls-6" d="M16.2,38.12c-.06-.05-.11-.08-.16-.11-.14-.09-.24-.11-.35-.06l-.39,.27c-.11,.1-.12,.25-.2,.32-.04,.04-.38-.07-.31-.29h-.16s-.27,1.11-.27,1.11l-.64,.71c-.28,.3-.47,.66-.07,.94l.6-.88,.35,.24-.67,.99c.08,.66,.25,.78,.9,.63l.24-1.5,.42,.07-.25,1.55c.13,.12,.4,.36,.61,.36s.47-.23,.6-.36l-.33-1.58,.41-.08,.32,1.54c.62,.05,.8-.05,.88-.67l-.72-.96,.34-.26,.64,.85c.31-.29,.3-.53-.01-.86l-.66-.72-.27-1.11h-.19s-.37,.2-.37,.2c-.05-.12-.08-.18-.18-.26l-.08-.06Z"></path></g><g><path class="cls-4" d="M36.88,32.1l.26,.02,.29,1.2,.24,.26s.03,.03,.08,.09c.06,.08,.11,.15,.15,.22l.15,.16s.03,.03,.07,.09c.46,.58,.31,.99-.21,1.42-.1,.87-.51,1.11-1.37,1.01-.23,.22-.56,.49-.89,.49-.33,0-.66-.27-.88-.49-.53,.12-.99,.12-1.23-.37-.37-.1-.57-.42-.63-1l-.13-.08c-.58-.42-.41-1.08,.03-1.55l.57-.63,.32-1.31,.86-.04c.48-.39,.8-.41,1.32-.01l.91,.06,.11,.47Z"></path><path class="cls-6" d="M35.6,31.9c-.06-.05-.11-.08-.16-.11-.14-.08-.24-.11-.35-.06l-.39,.27c-.11,.09-.12,.25-.2,.32-.04,.04-.38-.07-.31-.29h-.16s-.27,1.11-.27,1.11l-.64,.71c-.28,.3-.47,.66-.07,.94l.6-.89,.35,.24-.67,.99c.08,.66,.25,.78,.9,.63l.24-1.5,.42,.07-.25,1.55c.13,.12,.41,.36,.61,.36s.48-.23,.61-.35l-.33-1.58,.42-.09,.32,1.55c.62,.05,.8-.05,.88-.67l-.72-.96,.34-.25,.64,.85c.31-.29,.3-.53-.02-.86l-.66-.72-.27-1.11h-.19s-.37,.2-.37,.2c-.05-.12-.08-.18-.18-.26l-.09-.06Z"></path></g><g><polygon class="cls-4" points="74.58 2.49 75.26 3.48 77.26 3.11 77.15 3.7 77.62 3.61 77.27 5.44 78.6 6.35 78.45 6.45 78.93 6.78 77.24 7.94 77.62 9.95 75.61 9.57 74.45 11.26 74.12 10.78 74.02 10.92 73.12 9.61 71.27 9.95 71.38 9.47 70.79 9.58 71.16 7.59 70.16 6.91 69.45 6.35 71.17 5.16 70.79 3.11 72.84 3.49 74.02 1.77 74.54 2.52 74.58 2.49"></polygon><path class="cls-6" d="M73.18,3.75l.75,1.8s.08,0,.11,0,.07,0,.11,0l.72-1.8-.85-1.23-.84,1.23Zm.36,1.96l-.75-1.8-1.47-.27,.27,1.47,1.8,.75c.04-.05,.09-.1,.15-.14Zm-.33,.53l-1.78-.74-1.23,.85,1.23,.85,1.78-.73v-.08s0-.1,0-.15Zm.13,.62l-1.76,.72-.27,1.47,1.47-.27,.73-1.73c-.07-.05-.13-.12-.18-.19Zm.56,.36l-.73,1.72,.84,1.23,.85-1.23-.69-1.72s-.09,.01-.14,.01-.09,0-.13-.01Zm.65-.17l.7,1.73,1.47,.27-.27-1.47-1.71-.73c-.05,.07-.11,.14-.18,.19Zm.32-.59l1.74,.74,1.23-.84-1.23-.85-1.75,.73c0,.05,.01,.11,.01,.16v.07Zm-.2-.61l1.77-.73,.27-1.47-1.47,.27-.72,1.8c.06,.04,.1,.08,.14,.14Zm-.64,.02c-.29,0-.52,.23-.52,.52s.23,.52,.52,.52,.52-.24,.52-.52-.23-.52-.52-.52Z"></path></g><g><path class="cls-4" d="M36.88,22.85l.26,.02,.29,1.2,.24,.26s.03,.03,.08,.09c.06,.08,.11,.15,.15,.22l.15,.17s.03,.03,.07,.09c.46,.58,.31,.99-.21,1.42-.1,.87-.51,1.11-1.37,1.01-.23,.22-.56,.49-.89,.49-.33,0-.66-.27-.88-.49-.53,.12-.99,.12-1.23-.37-.37-.1-.57-.42-.63-1l-.13-.08c-.58-.42-.41-1.08,.03-1.55l.57-.62,.32-1.31,.86-.04c.48-.39,.8-.41,1.32-.01l.91,.06,.11,.47Z"></path><path class="cls-6" d="M35.6,22.65c-.06-.05-.11-.08-.16-.11-.14-.08-.24-.1-.35-.06l-.39,.27c-.11,.1-.12,.25-.2,.32-.04,.04-.38-.07-.31-.29h-.16s-.27,1.11-.27,1.11l-.64,.71c-.28,.3-.47,.66-.07,.94l.6-.88,.35,.24-.67,.99c.08,.66,.25,.78,.9,.63l.24-1.5,.42,.07-.25,1.55c.13,.12,.41,.36,.61,.36,.2,0,.48-.23,.61-.36l-.33-1.58,.42-.09,.32,1.55c.62,.05,.8-.05,.88-.67l-.72-.96,.34-.26,.64,.85c.31-.29,.3-.53-.02-.86l-.66-.72-.27-1.11h-.19s-.37,.2-.37,.2c-.05-.12-.08-.18-.18-.26l-.09-.06Z"></path></g><g><path class="cls-4" d="M36.88,13.6l.26,.02,.29,1.2,.24,.26s.03,.03,.08,.09c.06,.08,.11,.15,.15,.22l.15,.16s.03,.03,.07,.09c.46,.58,.31,.99-.21,1.42-.1,.87-.51,1.11-1.37,1.01-.23,.22-.56,.49-.89,.49-.33,0-.66-.26-.88-.48-.53,.12-.99,.12-1.23-.37-.37-.1-.57-.42-.63-1l-.13-.08c-.58-.42-.41-1.08,.03-1.55l.57-.62,.32-1.31,.86-.04c.48-.39,.8-.41,1.32-.01l.91,.06,.11,.47Z"></path><path class="cls-6" d="M35.6,13.4c-.06-.05-.11-.08-.16-.11-.14-.09-.24-.1-.35-.06l-.39,.27c-.11,.1-.12,.24-.2,.32-.04,.04-.38-.07-.31-.29h-.16s-.27,1.11-.27,1.11l-.64,.71c-.28,.3-.47,.66-.07,.94l.6-.88,.35,.24-.67,.99c.08,.66,.25,.78,.9,.63l.24-1.5,.42,.07-.25,1.55c.13,.12,.41,.36,.61,.36s.48-.23,.61-.35l-.33-1.58,.42-.08,.32,1.55c.62,.05,.8-.05,.88-.67l-.72-.96,.34-.25,.64,.85c.31-.29,.3-.53-.02-.86l-.66-.72-.27-1.11h-.19s-.37,.2-.37,.2c-.05-.12-.08-.18-.18-.26l-.09-.06Z"></path></g><g><path class="cls-4" d="M36.88,4.35l.26,.02,.29,1.2,.24,.26s.03,.03,.08,.09c.06,.08,.11,.15,.15,.22l.15,.16s.03,.03,.07,.09c.46,.58,.31,.99-.21,1.42-.1,.87-.51,1.11-1.37,1.01-.23,.22-.56,.49-.89,.49-.33,0-.66-.26-.88-.48-.53,.12-.99,.12-1.23-.37-.37-.1-.57-.42-.63-1l-.13-.08c-.58-.42-.41-1.08,.03-1.55l.57-.62,.32-1.31,.86-.04c.48-.39,.8-.41,1.32-.01l.91,.06,.11,.47Z"></path><path class="cls-6" d="M35.6,4.15c-.06-.04-.11-.08-.16-.11-.14-.09-.24-.11-.35-.06l-.39,.27c-.11,.09-.12,.24-.2,.32-.04,.04-.38-.07-.31-.29h-.16s-.27,1.11-.27,1.11l-.64,.7c-.28,.3-.47,.67-.07,.94l.6-.89,.35,.24-.67,.99c.08,.66,.25,.78,.9,.63l.24-1.5,.42,.07-.25,1.55c.13,.12,.41,.36,.61,.36s.48-.23,.61-.36l-.33-1.58,.42-.09,.32,1.55c.62,.05,.8-.05,.88-.67l-.72-.96,.34-.25,.64,.84c.31-.29,.3-.53-.02-.86l-.66-.72-.27-1.11h-.19s-.37,.2-.37,.2c-.05-.12-.08-.18-.18-.26l-.09-.06Z"></path></g><g><polygon class="cls-4" points="52.56 2.49 53.24 3.48 55.24 3.11 55.13 3.7 55.6 3.61 55.25 5.44 56.58 6.35 56.43 6.45 56.91 6.78 55.23 7.94 55.6 9.95 53.59 9.57 52.43 11.26 52.1 10.78 52 10.92 51.1 9.61 49.25 9.95 49.36 9.47 48.77 9.58 49.14 7.59 48.14 6.91 47.43 6.35 49.15 5.16 48.77 3.11 50.82 3.49 52 1.77 52.52 2.52 52.56 2.49"></polygon><path class="cls-6" d="M51.16,3.75l.75,1.8s.07,0,.11,0c.04,0,.07,0,.11,0l.72-1.8-.85-1.23-.85,1.23Zm.36,1.96l-.75-1.8-1.47-.27,.27,1.47,1.8,.75c.04-.05,.09-.1,.15-.14Zm-.33,.53l-1.78-.74-1.23,.85,1.23,.85,1.77-.73v-.08s0-.1,0-.15Zm.14,.62l-1.76,.72-.27,1.47,1.47-.27,.73-1.73c-.07-.05-.13-.12-.18-.19Zm.57,.36l-.73,1.72,.85,1.23,.85-1.23-.69-1.72s-.09,.01-.13,.01-.09,0-.13-.01Zm.65-.17l.7,1.73,1.47,.27-.28-1.47-1.71-.73c-.05,.07-.11,.14-.18,.19Zm.32-.59l1.74,.74,1.23-.84-1.23-.85-1.75,.73c.01,.05,.02,.11,.02,.16v.07Zm-.2-.61l1.77-.73,.28-1.47-1.47,.27-.72,1.8c.05,.04,.1,.08,.14,.14Zm-.64,.02c-.29,0-.52,.23-.52,.52s.24,.52,.52,.52,.52-.24,.52-.52-.23-.52-.52-.52Z"></path></g><g><path class="cls-4" d="M9.81,32.1l.26,.02,.29,1.2,.24,.26s.03,.03,.08,.09c.06,.08,.11,.15,.15,.22l.15,.16s.03,.03,.07,.09c.46,.58,.31,.99-.21,1.42-.1,.87-.51,1.11-1.36,1.01-.23,.22-.56,.49-.89,.49-.33,0-.66-.27-.89-.49-.53,.12-.99,.12-1.23-.37-.37-.1-.57-.42-.63-1l-.13-.08c-.59-.42-.41-1.08,.03-1.55l.57-.63,.32-1.31,.86-.04c.48-.39,.8-.41,1.32-.01l.91,.06,.12,.47Z"></path><path class="cls-6" d="M8.53,31.9c-.06-.05-.11-.08-.16-.11-.14-.08-.24-.11-.35-.06l-.39,.27c-.11,.09-.11,.25-.2,.32-.04,.04-.38-.07-.31-.29h-.16s-.27,1.11-.27,1.11l-.64,.71c-.28,.3-.47,.66-.07,.94l.6-.89,.35,.24-.67,.99c.08,.66,.25,.78,.9,.63l.24-1.5,.42,.07-.25,1.55c.13,.12,.4,.36,.61,.36s.47-.23,.6-.35l-.33-1.58,.41-.09,.32,1.55c.62,.05,.79-.05,.88-.67l-.72-.96,.34-.25,.64,.85c.31-.29,.3-.53-.01-.86l-.66-.72-.27-1.11h-.19s-.37,.2-.37,.2c-.05-.12-.09-.18-.18-.26l-.08-.06Z"></path></g><g><path class="cls-4" d="M9.81,22.85l.26,.02,.29,1.2,.24,.26s.03,.03,.08,.09c.06,.08,.11,.15,.15,.22l.15,.17s.03,.03,.07,.09c.46,.58,.31,.99-.21,1.42-.1,.87-.51,1.11-1.36,1.01-.23,.22-.56,.49-.89,.49-.33,0-.66-.27-.89-.49-.53,.12-.99,.12-1.23-.37-.37-.1-.57-.42-.63-1l-.13-.08c-.59-.42-.41-1.08,.03-1.55l.57-.62,.32-1.31,.86-.04c.48-.39,.8-.41,1.32-.01l.91,.06,.12,.47Z"></path><path class="cls-6" d="M8.53,22.65c-.06-.05-.11-.08-.16-.11-.14-.08-.24-.1-.35-.06l-.39,.27c-.11,.1-.11,.25-.2,.32-.04,.04-.38-.07-.31-.29h-.16s-.27,1.11-.27,1.11l-.64,.71c-.28,.3-.47,.66-.07,.94l.6-.88,.35,.24-.67,.99c.08,.66,.25,.78,.9,.63l.24-1.5,.42,.07-.25,1.55c.13,.12,.4,.36,.61,.36,.2,0,.47-.23,.6-.36l-.33-1.58,.41-.09,.32,1.55c.62,.05,.79-.05,.88-.67l-.72-.96,.34-.26,.64,.85c.31-.29,.3-.53-.01-.86l-.66-.72-.27-1.11h-.19s-.37,.2-.37,.2c-.05-.12-.09-.18-.18-.26l-.08-.06Z"></path></g><g><path class="cls-4" d="M9.81,13.6l.26,.02,.29,1.2,.24,.26s.03,.03,.08,.09c.06,.08,.11,.15,.15,.22l.15,.16s.03,.03,.07,.09c.46,.58,.31,.99-.21,1.42-.1,.87-.51,1.11-1.36,1.01-.23,.22-.56,.49-.89,.49-.33,0-.66-.26-.89-.48-.53,.12-.99,.12-1.23-.37-.37-.1-.57-.42-.63-1l-.13-.08c-.59-.42-.41-1.08,.03-1.55l.57-.62,.32-1.31,.86-.04c.48-.39,.8-.41,1.32-.01l.91,.06,.12,.47Z"></path><path class="cls-6" d="M8.53,13.4c-.06-.05-.11-.08-.16-.11-.14-.09-.24-.1-.35-.06l-.39,.27c-.11,.1-.11,.24-.2,.32-.04,.04-.38-.07-.31-.29h-.16s-.27,1.11-.27,1.11l-.64,.71c-.28,.3-.47,.66-.07,.94l.6-.88,.35,.24-.67,.99c.08,.66,.25,.78,.9,.63l.24-1.5,.42,.07-.25,1.55c.13,.12,.4,.36,.61,.36s.47-.23,.6-.35l-.33-1.58,.41-.08,.32,1.55c.62,.05,.79-.05,.88-.67l-.72-.96,.34-.25,.64,.85c.31-.29,.3-.53-.01-.86l-.66-.72-.27-1.11h-.19s-.37,.2-.37,.2c-.05-.12-.09-.18-.18-.26l-.08-.06Z"></path></g><g><path class="cls-4" d="M9.81,4.35l.26,.02,.29,1.2,.24,.26s.03,.03,.08,.09c.06,.08,.11,.15,.15,.22l.15,.16s.03,.03,.07,.09c.46,.58,.31,.99-.21,1.42-.1,.87-.51,1.11-1.36,1.01-.23,.22-.56,.49-.89,.49-.33,0-.66-.26-.89-.48-.53,.12-.99,.12-1.23-.37-.37-.1-.57-.42-.63-1l-.13-.08c-.59-.42-.41-1.08,.03-1.55l.57-.62,.32-1.31,.86-.04c.48-.39,.8-.41,1.32-.01l.91,.06,.12,.47Z"></path><path class="cls-6" d="M8.53,4.15c-.06-.04-.11-.08-.16-.11-.14-.09-.24-.11-.35-.06l-.39,.27c-.11,.09-.11,.24-.2,.32-.04,.04-.38-.07-.31-.29h-.16s-.27,1.11-.27,1.11l-.64,.7c-.28,.3-.47,.67-.07,.94l.6-.89,.35,.24-.67,.99c.08,.66,.25,.78,.9,.63l.24-1.5,.42,.07-.25,1.55c.13,.12,.4,.36,.61,.36s.47-.23,.6-.36l-.33-1.58,.41-.09,.32,1.55c.62,.05,.79-.05,.88-.67l-.72-.96,.34-.25,.64,.84c.31-.29,.3-.53-.01-.86l-.66-.72-.27-1.11h-.19s-.37,.2-.37,.2c-.05-.12-.09-.18-.18-.26l-.08-.06Z"></path></g><polygon class="cls-5" points="30.91 .64 27.69 .64 21.7 6.64 15.69 .64 12.48 .64 12.48 3.85 17.58 8.98 12.48 14.05 12.48 17.26 15.67 17.26 21.7 11.26 27.72 17.26 30.91 17.26 30.91 14.07 25.79 8.97 30.91 3.86 30.91 .64"></polygon><path class="cls-3" d="M22.27,36.05h6.76c1.37-.52,1.73-.98,1.88-2.45v-15.71h-8.64v18.16Z"></path><g><path class="cls-4" d="M24.38,26.33c-.15-.05-.28-.14-.37-.3-.02-.03-.03-.06-.04-.08-.54-.2-.69-.74-.37-1.36-.85-.59-.94-1.18-.13-1.89-.65-.62-.29-1.9,.62-2.04-.1-1.04,.61-1.36,1.51-1.19,.54-.75,1.75-.8,2.24-.03,.61-.3,1.16-.11,1.29,.42,.03,.02,.07,.03,.1,.05,.23,.15,.29,.37,.3,.61,.22,.14,.37,.32,.45,.53,.18,.13,.32,.29,.39,.52,.12,.43-.06,.85-.31,1.19,.34,.35,.62,.77,.54,1.23-.07,.42-.27,.9-.73,1,.38,.68,.23,1.45-.64,1.56-.11,.01-.21,.02-.29,.01,.03,.98-.47,1.24-1.35,.88-.04,.99-.03,2.02,.08,3.01,.04,.42,.17,.81,.4,1.15,.25,.27,.54,.52,.77,.69l1.14,.84-.07,.14,.45,.34-.14,.28s-.82-.24-1.32-.45c-.28-.12-.57-.25-.81-.44l-.07-.06c.02,.05,.04,.1,.06,.15l.32,.96-.26,.16s-.2-.2-.41-.43c-.05,.03-.46-.4-.71-.69-.06-.06-.11-.14-.15-.21-.29,.3-.74,.87-.86,1.08-.14,.24-1.01,1.02-1.27,1.26l-.25-.19,.34-.65-.48,.44-.33-.26,.42-.79s.24-.4,.32-.54c-.43,.19-.83,.33-1.36,.49l-.13-.29,.7-.43c-.31,.12-.63,.23-.96,.33l-.17-.38,.9-.56s.33-.18,.71-.46c1.47-1.08,1.22-1.58,1.39-3.15,.04-.35,.06-.79,.07-1.17-.41,.09-.85,.07-.99-.37-.36-.08-.57-.39-.53-.94Z"></path><path class="cls-8" d="M25.08,33.59c.29-.29,1.05-1.52,1.4-1.58,.46-.09,.65,.6,.9,.87l-.03-.09s-.02-.07-.03-.15c-.05-.44,.28-.56,.62-.33,.21,.15,.47,.26,.7,.36-.04-.04-.28-.22-.57-.48-1.26-1.17-1.11-1.75-1.25-3.3-.07-.83,.02-2.46,.02-2.46,1.06,.56,1.45,.64,1.27-.7,.25,.03,.95,.11,1.09-.18,.31-.62-.35-1.17-.69-1.54,0,0,.73,.19,.76,.19,.59,.03,.8-1.09,.02-1.66l-.19-.14c.27-.29,.62-.71,.5-1.16-.12-.43-.63-.51-.98-.55,.06-.2,.25-.74,0-.89-.35-.22-.75,.12-1,.31,0,0-.09-.34-.1-.36-.27-.62-1.33-.51-1.64,.07l-.08,.15c-.26-.07-.88-.22-1.09,0-.34,.34-.19,.78-.08,1.15-.41-.04-.87-.1-1.02,.48-.18,.73,.12,.84,.65,1.05-1.07,.74-1.38,1.08-.06,1.82-.77,1-.23,1.23,.78,1.11-.09,.27-.32,.98-.1,1.22,.26,.3,1.19-.21,1.45-.34,0,0,0,1.61-.08,2.41-.17,1.59,.05,2.21-1.41,3.34,.2-.1,.73-.41,.96-.19,.3,.3-.45,1.04-.63,1.41l-.09,.17Z"></path></g><path class="cls-6" d="M21.96,12.12l-5.21,5.14h10.37l-5.16-5.14Zm-9.48,1.33l4.5-4.47-4.5-4.53V13.45ZM30.91,4.97l-4.27,4.26,4.27,4.25V4.97ZM27.09,.64h-10.8l5.41,5.41L27.09,.64Z"></path></g><g><path class="cls-4" d="M45.23,54.69h-5.08v2.57s0,.11-.04,.24c-.12,.44-.47,.74-.92,.77H6.17s0,2.52,0,2.52c.01,.53-.46,1-.98,.99H1v-.59s-1,0-1,0v-7.97H3.76v-2.35c0-.35,.14-.63,.33-.84,.2-.18,.46-.32,.73-.34h.07s32.87,0,32.87,0v-2.41c0-.52,.38-1,.89-1.12,.08-.02,.15-.03,.19-.03h.08s6.86,0,6.86,0h.07c.54,.03,.97,.44,1.07,.95,.42,.13,.7,.52,.71,.96v1.66h32.26c.27,.02,.52,.16,.73,.34,.15,.18,.27,.39,.31,.62,.12,.04,.28,.12,.42,.24,.16,.19,.28,.43,.29,.68v1.67s3.07,0,3.07,0v.91h.69v7.65h-4.18s-.1,0-.24-.04c-.33-.09-.55-.29-.67-.56-.05,0-.13-.01-.22-.04-.48-.13-.9-.61-.86-1.12v-1.76h-32c-.42-.02-.72-.27-.87-.59-.64-.04-1.11-.59-1.11-1.17v-1.82Z"></path><path class="cls-6" d="M38.82,56.55l-1.06-2.45v-3.78H4.88c-.13,0-.24,.06-.34,.14-.08,.1-.14,.23-.15,.36v6.22H38.31c.29-.04,.47-.21,.51-.49Zm42.11-2.69v3.82l-1.09,2.41c.07,.29,.27,.45,.5,.46h3.71v-6.69h-3.13Zm-.79,3.82h-.3v.74s.3-.74,.3-.74Zm-75.6,0l.3,.74v-.74s-.3,0-.3,0Zm.3,2.42l-.98-2.42h-.1v-3.82H.64v6.69h3.71s.05,0,.12-.02c.21-.06,.36-.23,.38-.44Zm33.95-13.32c-.22,.05-.4,.26-.4,.49v6.2h7.91v-6.17s0-.06-.03-.13c-.06-.24-.24-.38-.49-.39h-6.92s-.04,0-.07,.01Zm7.07,9.71s0,.09,.02,.17c.05,.18,.24,.39,.43,.4h33.97s0-6.22,0-6.22c0-.13-.07-.26-.15-.36-.09-.08-.21-.14-.33-.15H46.94v3.77l-1.07,2.38Zm.28-2.38h-.28v.73l.28-.73Zm-7.61,0h.28v.73l-.28-.73Z"></path><path class="cls-4" d="M10.59,55.56c.15-.02,.26-.06,.33-.12,.08-.06,.23-.24,.45-.53l.85-1.1-.6-.92c-.26-.39-.44-.64-.55-.74-.1-.1-.24-.15-.42-.16v-.11h1.64v.11c-.16,0-.26,.02-.31,.03-.07,.02-.11,.08-.11,.16,0,.05,.02,.11,.05,.19,.02,.04,.04,.08,.07,.13l.56,.86,.62-.78c.09-.12,.15-.2,.18-.27,.02-.04,.03-.08,.03-.11,0-.08-.04-.14-.12-.16-.05-.02-.14-.03-.26-.03v-.11h1.29v.11c-.15,0-.26,.03-.34,.07-.13,.07-.28,.23-.46,.47l-.8,1.03,1.04,1.57c.11,.17,.2,.28,.28,.32,.07,.05,.18,.08,.33,.1v.1h-1.61v-.11c.15,0,.26-.02,.32-.04,.06-.02,.09-.07,.09-.14,0-.06-.04-.16-.12-.29-.08-.14-.31-.49-.67-1.06l-.64,.85c-.09,.12-.16,.22-.2,.27-.06,.09-.09,.16-.09,.2,0,.08,.05,.14,.14,.17,.05,.02,.15,.04,.28,.05v.1h-1.26v-.1Zm6.93-3.67v.11c-.21,.01-.34,.05-.4,.11-.06,.06-.09,.19-.09,.4v1.82c0,.3,.04,.53,.12,.7,.15,.3,.42,.46,.82,.46,.44,0,.74-.15,.89-.47,.09-.17,.13-.44,.13-.81v-1.48c0-.31-.04-.51-.11-.58-.07-.08-.2-.13-.4-.15v-.11h1.25v.11c-.21,.02-.35,.08-.41,.16-.06,.08-.09,.27-.09,.57v1.48c0,.39-.06,.7-.17,.92-.21,.4-.62,.61-1.21,.61s-.98-.2-1.2-.6c-.11-.21-.17-.5-.17-.85v-1.78c0-.21-.03-.34-.09-.4-.06-.06-.19-.1-.4-.11v-.11h1.54Zm2.36,3.67c.22-.02,.37-.08,.43-.16,.06-.08,.09-.27,.09-.58v-2.32c0-.21-.03-.34-.09-.4-.06-.06-.2-.1-.42-.11v-.11h1.07l1.25,2.88,1.2-2.88h1.08v.11c-.2,.01-.33,.05-.39,.12-.06,.06-.09,.19-.09,.4v2.54c0,.21,.03,.34,.09,.4,.06,.06,.19,.09,.39,.11v.1h-1.52v-.1c.22-.02,.35-.06,.41-.12,.05-.06,.08-.22,.08-.46v-2.56l-1.38,3.25h-.07l-1.36-3.11v2.28c0,.31,.04,.51,.13,.61,.06,.06,.18,.1,.38,.13v.1h-1.27v-.1Zm7.06-.27c.19-.11,.28-.33,.28-.65s-.11-.54-.33-.65c-.22-.12-.5-.18-.84-.18h-.26s0,1.42,0,1.42c0,.1,.03,.16,.08,.19,.05,.03,.18,.04,.37,.04,.28,0,.51-.06,.69-.17Zm-2.21,.27c.22-.01,.36-.05,.42-.11,.06-.06,.1-.2,.1-.41v-2.54c0-.21-.03-.34-.1-.4-.06-.06-.21-.1-.42-.11v-.11h1.52c.43,0,.78,.07,1.03,.22,.26,.15,.38,.4,.38,.76,0,.27-.09,.47-.27,.61-.1,.08-.25,.14-.45,.2,.25,.06,.46,.17,.64,.32,.17,.15,.27,.35,.27,.62,0,.45-.2,.75-.59,.92-.21,.09-.46,.13-.76,.13h-1.77v-.1Zm2.04-2.07c.23-.11,.34-.31,.34-.6,0-.34-.13-.57-.4-.69-.15-.07-.37-.1-.67-.1-.11,0-.18,.01-.21,.03-.02,.02-.04,.08-.04,.17v1.29h.52c.18-.01,.33-.04,.45-.1Zm3.39,.1c.29-.13,.43-.36,.43-.7s-.13-.55-.39-.68c-.14-.07-.32-.1-.55-.1-.15,0-.25,.01-.28,.04-.04,.02-.05,.08-.05,.16v1.41c.39-.02,.67-.06,.84-.13Zm-1.85,1.98c.21-.02,.34-.06,.39-.13,.05-.07,.08-.22,.08-.45v-2.47c0-.2-.03-.33-.09-.39-.06-.06-.18-.1-.38-.12v-.11h1.5c.31,0,.57,.04,.78,.13,.39,.16,.59,.45,.59,.87,0,.28-.09,.5-.26,.66-.17,.15-.41,.25-.71,.3l1.12,1.45c.07,.09,.14,.15,.21,.19,.07,.04,.16,.07,.26,.08v.1h-.87l-1.29-1.75h-.3v1.13c0,.21,.03,.35,.09,.4,.06,.06,.19,.09,.4,.11v.1h-1.51v-.1Zm5.81-1.36l-.63-1.57-.62,1.57h1.25Zm-2.34,1.46v-.1c.14-.02,.24-.07,.31-.17,.07-.09,.19-.35,.36-.77l1.13-2.8h.11l1.35,3.23c.09,.21,.16,.35,.22,.4,.05,.05,.14,.08,.27,.1v.1h-1.38v-.1c.16-.01,.26-.03,.31-.05,.05-.02,.07-.07,.07-.16,0-.03,0-.08-.03-.15-.02-.07-.04-.14-.07-.22l-.22-.55h-1.42c-.14,.37-.23,.6-.25,.68-.03,.08-.04,.15-.04,.19,0,.1,.04,.17,.11,.2,.05,.02,.13,.04,.26,.05v.1h-1.07Zm7.62-3.82c.23-.01,.38-.05,.45-.1,.07-.05,.1-.19,.1-.41v-2.54c0-.21-.04-.34-.1-.4-.07-.06-.22-.1-.45-.11v-.11h1.69v.11c-.23,.01-.38,.05-.45,.11-.07,.06-.1,.19-.1,.4v2.54c0,.22,.04,.36,.1,.41,.07,.05,.22,.09,.45,.1v.1h-1.69v-.1Zm1.87,0c.24-.02,.39-.08,.45-.16,.07-.08,.1-.28,.1-.58v-2.51l-.08-.09c-.08-.1-.15-.16-.21-.18-.06-.02-.15-.04-.26-.04v-.11h.98l2.2,2.74v-1.91c0-.31-.05-.52-.14-.61-.06-.06-.2-.1-.41-.12v-.11h1.34v.11c-.22,.02-.36,.07-.43,.16-.07,.08-.11,.27-.11,.57v3h-.1l-2.52-3.13v2.22c0,.31,.05,.52,.14,.61,.06,.06,.19,.1,.4,.12v.1h-1.34v-.1Zm12.24,2.59c.1,.26,.21,.46,.34,.61,.23,.27,.51,.4,.84,.4,.18,0,.34-.06,.47-.17,.13-.12,.2-.28,.2-.48,0-.19-.07-.35-.2-.48-.09-.09-.27-.22-.55-.39l-.49-.3c-.15-.09-.26-.19-.35-.28-.16-.18-.24-.38-.24-.6,0-.29,.1-.53,.29-.72,.19-.19,.44-.29,.76-.29,.13,0,.29,.03,.47,.1,.18,.06,.29,.09,.31,.09,.07,0,.12-.02,.14-.05,.03-.03,.05-.08,.07-.14h.12l.13,1.21h-.14c-.09-.36-.24-.62-.45-.77-.2-.14-.41-.22-.61-.22-.16,0-.29,.05-.41,.14-.12,.09-.17,.22-.17,.38,0,.15,.04,.27,.13,.38,.09,.11,.23,.22,.41,.33l.5,.31c.31,.19,.54,.37,.66,.53,.12,.16,.19,.36,.19,.58,0,.3-.11,.55-.34,.75-.22,.2-.51,.3-.86,.3-.18,0-.36-.03-.55-.1-.19-.07-.3-.1-.33-.1-.06,0-.11,.02-.13,.06-.02,.04-.04,.08-.05,.13h-.12l-.17-1.21h.13Zm4.31,.59c.24,.28,.53,.43,.87,.43s.62-.14,.86-.42c.24-.28,.36-.73,.36-1.34s-.12-1.07-.36-1.35c-.24-.28-.53-.41-.86-.41s-.63,.14-.87,.43c-.24,.28-.35,.73-.35,1.33s.12,1.05,.35,1.33Zm-.43-2.8c.35-.33,.78-.5,1.3-.5s.94,.17,1.3,.51c.38,.36,.57,.85,.57,1.46s-.2,1.11-.59,1.48c-.35,.33-.78,.49-1.28,.49-.54,0-.98-.18-1.33-.54-.36-.37-.54-.84-.54-1.42s.19-1.1,.57-1.46Zm3.78,3.25c.21-.02,.35-.06,.41-.11,.06-.05,.09-.19,.09-.4v-2.54c0-.2-.03-.33-.09-.4-.06-.06-.2-.1-.41-.12v-.11h1.61v.11c-.21,.01-.35,.05-.42,.1-.07,.06-.11,.18-.11,.37v2.74c0,.06,0,.11,.03,.15,.02,.04,.07,.06,.14,.07h.13s.27,.01,.27,.01c.51,0,.85-.04,1.03-.12,.18-.08,.35-.3,.52-.64h.14l-.28,.99h-3.07v-.1Zm3.83,0c.21-.02,.34-.06,.41-.11,.06-.05,.09-.19,.09-.4v-2.54c0-.2-.03-.33-.09-.4-.06-.06-.2-.1-.41-.12v-.11h3.03l.02,.82h-.15c-.05-.25-.12-.42-.22-.49-.1-.07-.31-.11-.65-.11h-.77c-.08,0-.14,.01-.16,.04-.02,.03-.03,.08-.03,.15v1.27h.88c.24,0,.4-.04,.47-.11,.07-.07,.12-.22,.16-.44h.13v1.32h-.13c-.04-.22-.1-.36-.17-.44-.07-.07-.22-.11-.46-.11h-.88v1.41c0,.11,.03,.18,.11,.2,.07,.02,.29,.03,.64,.03,.39,0,.67-.04,.86-.12,.18-.08,.35-.29,.5-.61h.16l-.26,.96h-3.08v-.1Zm3.83,0c.24-.02,.39-.08,.45-.16,.07-.08,.1-.28,.1-.58v-2.32c0-.21-.03-.34-.1-.4-.07-.06-.21-.1-.44-.11v-.11h1.13l1.32,2.87,1.26-2.87h1.14v.11c-.21,.02-.35,.05-.41,.12-.06,.06-.09,.19-.09,.4v2.54c0,.21,.03,.34,.09,.4,.06,.06,.2,.09,.41,.12v.1h-1.6v-.1c.23-.02,.37-.06,.43-.12,.06-.07,.09-.22,.09-.46v-2.56l-1.46,3.25h-.08l-1.43-3.11v2.27c0,.31,.05,.52,.14,.61,.06,.06,.19,.1,.4,.13v.1h-1.34v-.1Zm-61.54,.08c.2-.02,.33-.06,.39-.11,.06-.05,.09-.19,.09-.4v-2.54c0-.2-.03-.33-.09-.4-.06-.06-.19-.1-.39-.12v-.11h2.88l.02,.82h-.14c-.05-.25-.11-.41-.21-.49-.09-.07-.3-.11-.62-.11h-.73c-.08,0-.13,.01-.15,.04-.02,.03-.03,.08-.03,.15v1.27h.83c.23,0,.38-.04,.44-.11,.06-.07,.11-.22,.15-.44h.13v1.32h-.13c-.04-.22-.09-.37-.16-.44-.06-.07-.21-.11-.44-.11h-.83v1.41c0,.11,.03,.18,.1,.2,.07,.02,.27,.03,.61,.03,.37,0,.64-.04,.81-.13,.17-.08,.33-.29,.47-.61h.15l-.25,.96h-2.93v-.1Z"></path></g></g><rect class="cls-2" x="324.9" y=".23" width="1" height="61.29"></rect></g><g><path class="cls-1" d="M344.84,21.52V12.25h2.63c1,0,1.82,.37,2.46,1.11,.63,.74,.95,1.7,.95,2.87v1.32c0,1.17-.32,2.13-.95,2.87s-1.45,1.11-2.46,1.11h-2.63Zm1.29-8.28v7.3h1.34c.64,0,1.15-.28,1.53-.84,.38-.56,.57-1.28,.57-2.16v-1.33c0-.87-.19-1.58-.57-2.14s-.89-.84-1.53-.84h-1.34Z"></path><path class="cls-1" d="M353.83,21.52h-1.29V12.25h1.29v9.27Z"></path><path class="cls-1" d="M357.01,17.53v3.99h-1.29V12.25h2.73c.89,0,1.58,.23,2.07,.68,.49,.45,.73,1.11,.73,1.96,0,.48-.11,.91-.34,1.27-.23,.36-.55,.64-.98,.84,.48,.16,.82,.43,1.03,.8s.32,.84,.32,1.39v.81c0,.28,.03,.55,.08,.8,.05,.25,.15,.44,.29,.57v.15h-1.33c-.14-.14-.24-.35-.28-.64-.04-.29-.07-.58-.07-.89v-.78c0-.52-.12-.93-.36-1.23-.24-.3-.57-.45-1-.45h-1.6Zm0-.99h1.38c.53,0,.93-.14,1.18-.42,.25-.28,.38-.68,.38-1.2s-.12-.94-.37-1.24c-.25-.29-.62-.44-1.13-.44h-1.44v3.3Z"></path><path class="cls-1" d="M367.41,17.22h-3.15v3.32h3.71v.98h-5V12.25h4.97v.99h-3.67v2.99h3.15v.99Z"></path><path class="cls-1" d="M375.07,18.73v.04c.03,.91-.23,1.62-.75,2.13s-1.25,.76-2.17,.76-1.71-.3-2.27-.91c-.56-.61-.85-1.46-.85-2.56v-2.57c0-1.1,.28-1.95,.83-2.57,.56-.62,1.3-.92,2.24-.92s1.69,.25,2.22,.74c.53,.49,.79,1.21,.77,2.15v.04h-1.25c0-.66-.14-1.15-.43-1.46-.29-.31-.72-.47-1.3-.47s-1.01,.21-1.32,.64c-.31,.43-.46,1.04-.46,1.84v2.59c0,.81,.16,1.42,.48,1.85s.77,.64,1.35,.64,.98-.15,1.26-.46c.28-.31,.42-.8,.42-1.48h1.24Z"></path><path class="cls-1" d="M382.28,18.73v.04c.03,.91-.23,1.62-.75,2.13s-1.25,.76-2.17,.76-1.71-.3-2.27-.91c-.56-.61-.85-1.46-.85-2.56v-2.57c0-1.1,.28-1.95,.83-2.57,.56-.62,1.3-.92,2.24-.92s1.69,.25,2.22,.74c.53,.49,.79,1.21,.77,2.15v.04h-1.25c0-.66-.14-1.15-.43-1.46-.29-.31-.72-.47-1.3-.47s-1.01,.21-1.32,.64c-.31,.43-.46,1.04-.46,1.84v2.59c0,.81,.16,1.42,.48,1.85s.77,.64,1.35,.64,.98-.15,1.26-.46c.28-.31,.42-.8,.42-1.48h1.24Z"></path><path class="cls-1" d="M385.11,21.52h-1.29V12.25h1.29v9.27Z"></path><path class="cls-1" d="M393.24,18.16c0,1.1-.3,1.96-.89,2.57-.59,.61-1.39,.92-2.39,.92s-1.77-.31-2.35-.92c-.58-.61-.87-1.47-.87-2.57v-2.55c0-1.1,.29-1.95,.87-2.57,.58-.62,1.36-.93,2.34-.93s1.79,.31,2.39,.93c.6,.62,.9,1.48,.9,2.58v2.55Zm-1.29-2.57c0-.81-.17-1.42-.52-1.84-.35-.42-.84-.63-1.48-.63s-1.1,.21-1.43,.63c-.33,.42-.5,1.03-.5,1.84v2.57c0,.82,.17,1.43,.5,1.85,.33,.42,.81,.63,1.43,.63s1.13-.21,1.48-.63c.34-.42,.52-1.04,.52-1.86v-2.57Zm-1.49-6.08h1.48l.02,.03-1.54,1.66h-1.08l1.12-1.69Z"></path><path class="cls-1" d="M400.98,21.52h-1.3l-3.59-6.84h-.04v6.84h-1.29V12.25h1.29l3.59,6.82h.04v-6.82h1.3v9.27Z"></path><path class="cls-1" d="M344.84,35.5v-9.27h2.63c1,0,1.82,.37,2.46,1.11,.63,.74,.95,1.7,.95,2.87v1.32c0,1.17-.32,2.13-.95,2.87s-1.45,1.11-2.46,1.11h-2.63Zm1.29-8.28v7.3h1.34c.64,0,1.15-.28,1.53-.84,.38-.56,.57-1.28,.57-2.16v-1.33c0-.87-.19-1.58-.57-2.14s-.89-.84-1.53-.84h-1.34Z"></path><path class="cls-1" d="M356.86,31.19h-3.15v3.32h3.71v.98h-5v-9.27h4.97v.99h-3.67v2.99h3.15v.99Z"></path><path class="cls-1" d="M362.87,31.5v3.99h-1.29v-9.27h2.73c.89,0,1.58,.23,2.07,.68,.49,.45,.73,1.11,.73,1.96,0,.48-.11,.91-.34,1.27-.23,.36-.55,.64-.98,.84,.48,.16,.82,.43,1.03,.8s.32,.84,.32,1.39v.81c0,.28,.03,.55,.08,.8,.05,.25,.15,.44,.29,.57v.15h-1.33c-.14-.14-.24-.35-.28-.64-.04-.29-.07-.58-.07-.89v-.78c0-.52-.12-.93-.36-1.23-.24-.3-.57-.45-1-.45h-1.6Zm0-.99h1.38c.53,0,.93-.14,1.18-.42,.25-.28,.38-.68,.38-1.2s-.12-.94-.37-1.24c-.25-.29-.62-.44-1.13-.44h-1.44v3.3Z"></path><path class="cls-1" d="M373.27,31.19h-3.15v3.32h3.71v.98h-5v-9.27h4.97v.99h-3.67v2.99h3.15v.99Z"></path><path class="cls-1" d="M376.42,34.52h3.75v.98h-5.04v-9.27h1.29v8.29Z"></path><path class="cls-1" d="M385.64,33.15h-2.77l-.67,2.34h-1.34l2.78-9.27h1.25l2.76,9.27h-1.34l-.67-2.34Zm-2.48-1.03h2.19l-1.07-3.77h-.04l-1.08,3.77Z"></path><path class="cls-1" d="M394.45,32.71v.04c.03,.91-.23,1.62-.75,2.13s-1.25,.76-2.17,.76-1.71-.3-2.27-.91c-.56-.61-.85-1.46-.85-2.56v-2.57c0-1.1,.28-1.95,.83-2.57,.56-.62,1.3-.92,2.24-.92s1.69,.25,2.22,.74c.53,.49,.79,1.21,.77,2.15v.04h-1.25c0-.66-.14-1.15-.43-1.46-.29-.31-.72-.47-1.3-.47s-1.01,.21-1.32,.64c-.31,.43-.46,1.04-.46,1.84v2.59c0,.81,.16,1.42,.48,1.85s.77,.64,1.35,.64,.98-.15,1.26-.46c.28-.31,.42-.8,.42-1.48h1.24Z"></path><path class="cls-1" d="M397.27,35.5h-1.29v-9.27h1.29v9.27Z"></path><path class="cls-1" d="M405.4,32.14c0,1.1-.3,1.96-.89,2.57-.59,.61-1.39,.92-2.39,.92s-1.77-.31-2.35-.92c-.58-.61-.87-1.47-.87-2.57v-2.55c0-1.1,.29-1.95,.87-2.57,.58-.62,1.36-.93,2.34-.93s1.79,.31,2.39,.93c.6,.62,.9,1.48,.9,2.58v2.55Zm-1.29-2.57c0-.81-.17-1.42-.52-1.84-.35-.42-.84-.63-1.48-.63s-1.1,.21-1.43,.63c-.33,.42-.5,1.03-.5,1.84v2.57c0,.82,.17,1.43,.5,1.85,.33,.42,.81,.63,1.43,.63s1.13-.21,1.48-.63c.34-.42,.52-1.04,.52-1.86v-2.57Z"></path><path class="cls-1" d="M413.14,35.5h-1.3l-3.59-6.84h-.04v6.84h-1.29v-9.27h1.29l3.59,6.82h.04v-6.82h1.3v9.27Z"></path><path class="cls-1" d="M419.35,31.19h-3.15v3.32h3.71v.98h-5v-9.27h4.97v.99h-3.67v2.99h3.15v.99Z"></path><path class="cls-1" d="M425.44,33.16c0-.42-.12-.77-.36-1.05-.24-.27-.67-.52-1.28-.75-.87-.27-1.54-.62-2.01-1.05s-.7-1-.7-1.71,.26-1.33,.77-1.81c.52-.47,1.18-.71,1.98-.71,.86,0,1.55,.26,2.06,.79,.52,.53,.77,1.19,.75,1.98v.04h-1.25c0-.54-.14-.98-.43-1.32-.29-.34-.67-.5-1.14-.5s-.81,.14-1.07,.43-.38,.65-.38,1.08c0,.4,.13,.74,.4,1s.72,.51,1.35,.75c.85,.28,1.49,.64,1.93,1.08,.44,.45,.66,1.02,.66,1.73,0,.76-.26,1.36-.78,1.81-.52,.45-1.2,.67-2.05,.67s-1.52-.24-2.13-.73-.89-1.18-.87-2.08v-.04h1.26c0,.63,.17,1.1,.5,1.41,.33,.31,.75,.46,1.24,.46s.86-.13,1.13-.4c.27-.27,.41-.63,.41-1.09Z"></path><path class="cls-1" d="M349.27,45.17h-3.15v3.32h3.71v.98h-5v-9.27h4.97v.99h-3.67v2.99h3.15v.99Z"></path><path class="cls-1" d="M355.36,47.14c0-.42-.12-.77-.36-1.05-.24-.27-.67-.52-1.28-.75-.87-.27-1.54-.62-2.01-1.05s-.7-1-.7-1.71,.26-1.33,.77-1.81c.52-.47,1.18-.71,1.98-.71,.86,0,1.55,.26,2.06,.79,.52,.53,.77,1.19,.75,1.98v.04h-1.25c0-.54-.14-.98-.43-1.32-.29-.34-.67-.5-1.14-.5s-.81,.14-1.07,.43-.38,.65-.38,1.08c0,.4,.13,.74,.4,1s.72,.51,1.35,.75c.85,.28,1.49,.64,1.93,1.08,.44,.45,.66,1.02,.66,1.73,0,.76-.26,1.36-.78,1.81-.52,.45-1.2,.67-2.05,.67s-1.52-.24-2.13-.73-.89-1.18-.87-2.08v-.04h1.26c0,.63,.17,1.1,.5,1.41,.33,.31,.75,.46,1.24,.46s.86-.13,1.13-.4c.27-.27,.41-.63,.41-1.09Z"></path><path class="cls-1" d="M363.65,41.19h-2.46v8.28h-1.3v-8.28h-2.44v-.99h6.2v.99Z"></path><path class="cls-1" d="M370.83,40.2v6.13c0,1.03-.29,1.83-.87,2.41-.58,.58-1.33,.87-2.25,.87s-1.64-.29-2.21-.87c-.57-.58-.85-1.38-.85-2.4v-6.13h1.29v6.13c0,.72,.16,1.28,.49,1.68,.33,.41,.75,.61,1.28,.61s.98-.2,1.31-.6c.33-.4,.5-.97,.5-1.69v-6.13h1.3Z"></path><path class="cls-1" d="M372.48,49.47v-9.27h2.63c1,0,1.82,.37,2.46,1.11,.63,.74,.95,1.7,.95,2.87v1.32c0,1.17-.32,2.13-.95,2.87s-1.45,1.11-2.46,1.11h-2.63Zm1.29-8.28v7.3h1.34c.64,0,1.15-.28,1.53-.84,.38-.56,.57-1.28,.57-2.16v-1.33c0-.87-.19-1.58-.57-2.14s-.89-.84-1.53-.84h-1.34Z"></path><path class="cls-1" d="M381.48,49.47h-1.29v-9.27h1.29v9.27Z"></path><path class="cls-1" d="M387.58,47.13h-2.77l-.67,2.34h-1.34l2.78-9.27h1.25l2.76,9.27h-1.34l-.67-2.34Zm-2.48-1.03h2.19l-1.07-3.77h-.04l-1.08,3.77Z"></path><path class="cls-1" d="M396.88,49.47h-1.3l-3.59-6.84h-.04v6.84h-1.29v-9.27h1.29l3.59,6.82h.04v-6.82h1.3v9.27Z"></path><path class="cls-1" d="M404.01,41.19h-2.46v8.28h-1.3v-8.28h-2.44v-.99h6.2v.99Z"></path><path class="cls-1" d="M406.53,49.47h-1.29v-9.27h1.29v9.27Z"></path><path class="cls-1" d="M409.71,48.49h3.75v.98h-5.04v-9.27h1.29v8.29Z"></path><path class="cls-1" d="M419.15,45.17h-3.15v3.32h3.71v.98h-5v-9.27h4.97v.99h-3.67v2.99h3.15v.99Z"></path><path class="cls-1" d="M425.24,47.14c0-.42-.12-.77-.36-1.05-.24-.27-.67-.52-1.28-.75-.87-.27-1.54-.62-2.01-1.05s-.7-1-.7-1.71,.26-1.33,.77-1.81c.52-.47,1.18-.71,1.98-.71,.86,0,1.55,.26,2.06,.79,.52,.53,.77,1.19,.75,1.98v.04h-1.25c0-.54-.14-.98-.43-1.32-.29-.34-.67-.5-1.14-.5s-.81,.14-1.07,.43-.38,.65-.38,1.08c0,.4,.13,.74,.4,1s.72,.51,1.35,.75c.85,.28,1.49,.64,1.93,1.08,.44,.45,.66,1.02,.66,1.73,0,.76-.26,1.36-.78,1.81-.52,.45-1.2,.67-2.05,.67s-1.52-.24-2.13-.73-.89-1.18-.87-2.08v-.04h1.26c0,.63,.17,1.1,.5,1.41,.33,.31,.75,.46,1.24,.46s.86-.13,1.13-.4c.27-.27,.41-.63,.41-1.09Z"></path></g></g></g></svg>